<?xml version="1.0" encoding="UTF-8" standalone="no"?>
<!DOCTYPE svg PUBLIC "-//W3C//DTD SVG 1.1//EN" "http://www.w3.org/Graphics/SVG/1.1/DTD/svg11.dtd">
<svg width="259.20" height="259.20" viewBox="0.00 0.00 1080.00 1080.00" xmlns="http://www.w3.org/2000/svg" xmlns:xlink="http://www.w3.org/1999/xlink">
<g stroke-linecap="round" transform="translate(-15.00, 18.00)" id="Layer_7_Copy_2">
<path d="M514.04,315.60 C514.49,315.43 514.80,315.28 514.97,315.15 C516.50,313.99 525.64,300.01 529.98,292.37 C536.55,280.35 548.56,253.83 554.92,239.43 C557.81,232.86 564.96,216.93 567.60,211.89 C571.06,205.34 581.90,190.64 584.77,187.11 C589.35,181.50 600.58,170.77 603.87,168.28 C605.48,167.09 609.47,164.11 610.04,163.80 C610.44,163.59 611.03,163.39 611.83,163.21" fill="none" stroke="rgb(255, 128, 64)" stroke-width="27.80" stroke-opacity="1.00" stroke-linejoin="round"/>
<path d="M610.89,165.87 C610.54,168.48 610.85,173.53 613.28,185.50 C615.44,195.26 618.13,202.40 622.55,213.22 C628.89,228.64 641.36,258.53 647.48,273.00 C653.15,285.88 666.95,312.43 674.08,325.75 C679.83,336.24 696.01,361.04 705.17,375.09 C713.84,388.51 729.24,412.93 736.73,427.18 C741.47,436.57 745.45,446.89 747.48,455.42 C749.48,464.08 750.95,478.40 750.41,484.25 C749.83,490.14 745.48,505.33 743.36,510.21 C742.00,513.30 733.76,529.49 730.36,536.12 C726.97,542.92 723.35,554.86 722.96,558.00 C722.62,560.77 722.62,568.46 722.70,572.49 C722.90,577.92 723.36,583.97 724.05,588.67 C724.39,590.93 724.67,592.13 725.25,593.92" fill="none" stroke="rgb(255, 128, 64)" stroke-width="27.80" stroke-opacity="1.00" stroke-linejoin="round"/>
<path d="M729.25,599.38 C729.88,596.77 731.57,591.89 733.06,588.75 C735.82,583.00 744.03,571.16 749.32,565.41 C754.62,559.73 762.53,552.99 767.90,550.37 C772.97,548.00 777.05,546.54 778.71,545.94" fill="none" stroke="rgb(255, 128, 64)" stroke-width="27.80" stroke-opacity="1.00" stroke-linejoin="round"/>
<path d="M636.07,864.70 C635.94,864.25 636.29,863.84 637.97,862.77 C639.61,861.70 674.12,838.47 686.15,831.07 C698.23,823.66 725.19,806.70 734.54,800.24 C748.52,790.17 762.68,777.98 778.01,763.01 C784.98,755.93 792.33,747.97 799.21,739.70 C801.42,736.91 806.12,730.88 807.71,728.26 C808.90,726.28 811.62,719.23 812.03,716.42 C812.53,712.82 811.59,706.88 810.04,702.31 C808.79,698.75 799.26,681.14 796.81,674.85 C794.13,667.91 791.25,656.46 791.14,648.83 C791.06,642.10 792.79,628.04 793.64,621.40 C794.80,611.63 794.80,599.52 792.95,591.53 C790.87,582.74 781.29,561.20 780.75,558.74 C780.32,556.78 779.04,549.84 778.92,548.65 C778.76,546.92 778.73,544.37 778.81,543.05" fill="none" stroke="rgb(255, 128, 64)" stroke-width="27.80" stroke-opacity="1.00" stroke-linejoin="round"/>
<path d="M813.21,406.74 C815.05,409.68 817.23,416.04 818.57,420.11 C820.91,427.53 824.10,439.72 825.47,446.61 C825.76,448.15 826.25,450.78 826.45,451.86 C826.58,452.60 826.79,453.87 826.90,454.56 C826.90,454.56 826.54,451.17 826.54,451.17" fill="none" stroke="rgb(255, 128, 64)" stroke-width="27.80" stroke-opacity="1.00" stroke-linejoin="round"/>
<path d="M485.52,77.89 C485.84,74.75 486.94,70.11 488.39,66.42 C489.58,63.43 492.45,58.24 494.36,55.66 C498.79,49.75 505.10,43.60 507.30,42.00 C509.20,40.63 513.31,38.27 513.85,38.02 C514.13,37.88 514.61,37.68 515.29,37.42" fill="none" stroke="rgb(255, 128, 64)" stroke-width="27.80" stroke-opacity="1.00" stroke-linejoin="round"/>
<path d="M760.04,240.22 C758.26,239.95 757.14,239.24 755.65,237.22 C753.63,234.48 740.59,219.35 737.37,214.68 C733.13,208.47 727.67,196.46 725.31,190.22 C723.54,185.48 721.02,166.92 720.63,161.78 C720.12,155.08 720.28,124.87 720.36,117.12 C720.34,114.16 720.29,111.98 720.18,110.10 C720.13,109.18 719.97,106.57 719.92,106.14 C719.90,105.88 719.84,105.55 719.76,105.15" fill="none" stroke="rgb(255, 128, 64)" stroke-width="27.80" stroke-opacity="1.00" stroke-linejoin="round"/>
<path d="M719.56,102.96 C721.13,103.26 726.26,104.85 730.82,106.56 C738.45,109.60 756.35,116.93 760.31,119.37 C767.81,124.01 776.51,130.63 780.60,135.16 C782.59,137.38 786.27,142.94 787.27,145.34 C788.34,147.98 789.64,155.05 789.56,158.72 C789.43,163.70 786.84,175.76 784.22,182.48 C781.18,190.17 773.61,209.33 772.83,211.46 C771.34,215.53 767.20,233.86 767.13,234.20 C766.99,234.86 766.79,235.89 766.53,237.30 C766.38,238.12 766.23,238.94 766.08,239.76 C765.89,240.74 765.70,241.71 765.52,242.69" fill="none" stroke="rgb(255, 128, 64)" stroke-width="27.80" stroke-opacity="1.00" stroke-linejoin="round"/>
<path d="M410.24,505.67 C410.73,491.83 412.80,460.54 414.31,444.34 C416.63,424.42 420.67,400.68 423.36,387.42 C425.50,377.69 427.76,368.97 431.04,358.28 C433.45,350.82 438.54,337.47 441.54,330.31 C444.70,323.38 451.48,308.87 455.37,302.27 C458.03,297.78 468.93,281.73 472.82,276.79 C482.90,264.03 493.99,253.74 495.27,252.92 C495.96,252.48 496.86,252.11 497.32,252.01" fill="none" stroke="rgb(255, 128, 64)" stroke-width="27.80" stroke-opacity="1.00" stroke-linejoin="round"/>
<path d="M497.91,252.01 C497.88,252.24 499.94,258.28 500.56,262.36 C501.88,271.43 503.02,282.68 505.01,291.53 C507.74,302.89 509.64,309.60 510.42,311.46 C510.66,312.04 510.88,312.48 511.05,312.78 C511.15,312.94 511.38,313.26 511.72,313.72 C511.72,313.72 511.73,313.19 511.73,313.19" fill="none" stroke="rgb(255, 128, 64)" stroke-width="27.80" stroke-opacity="1.00" stroke-linejoin="round"/>
<path d="M303.18,447.70 C303.67,447.93 308.51,448.98 311.78,450.43 C314.96,451.89 327.91,461.99 332.42,466.75 C337.06,471.67 344.04,481.30 346.50,486.75 C349.27,492.92 354.59,508.35 355.94,515.14 C356.89,519.97 359.44,540.14 360.43,548.47 C360.67,550.71 360.93,551.40 361.61,551.92 C366.53,546.64 377.35,535.13 383.26,528.89 C391.30,520.75 396.21,514.17 396.82,513.66 C397.23,513.33 402.21,510.53 403.49,509.62 C404.89,508.62 408.77,504.27 409.49,503.45" fill="none" stroke="rgb(255, 128, 64)" stroke-width="27.80" stroke-opacity="1.00" stroke-linejoin="round"/>
<path d="M304.73,448.19 C304.42,448.27 304.23,449.34 304.41,450.83 C304.45,451.18 305.94,459.11 306.24,461.96 C306.63,465.72 307.10,484.35 307.22,492.35 C307.17,502.42 306.29,509.99 304.68,519.94 C302.83,530.68 293.76,562.88 289.36,578.14 C287.17,585.29 283.89,595.92 281.51,604.89 C279.60,612.79 275.26,631.52 274.71,635.07 C274.18,638.57 274.43,655.56 274.99,660.22 C275.82,666.76 285.69,706.91 289.74,723.19 C292.74,736.60 300.48,768.73 303.30,776.27 C306.17,783.64 312.80,800.26 314.47,803.45 C315.66,805.69 318.87,810.38 321.36,813.50 C325.89,819.11 338.09,828.85 344.16,832.88 C355.89,840.42 380.64,857.05 393.54,865.75 C400.89,870.39 414.96,879.12 421.69,883.21 C430.63,888.57 439.05,892.60 447.08,895.27 C452.70,897.13 466.14,899.44 474.48,900.53 C480.30,901.22 495.39,901.97 502.44,901.82 C516.84,901.35 544.16,898.51 558.94,896.51 C564.15,895.72 582.13,892.29 586.15,891.28 C593.25,889.48 606.78,884.56 614.53,881.19 C619.51,878.96 625.25,875.98 628.76,873.48 C630.90,872.04 633.48,870.30 634.32,869.58" fill="none" stroke="rgb(255, 128, 64)" stroke-width="27.80" stroke-opacity="1.00" stroke-linejoin="round"/>
<path d="M611.86,827.52 C610.76,827.54 605.75,831.64 602.60,833.33 C595.75,837.01 555.16,856.66 547.46,859.75 C537.77,863.61 526.59,866.24 518.34,867.30 C513.33,867.93 500.82,867.11 493.04,864.95 C486.47,863.11 474.68,858.52 465.34,853.70 C458.00,849.75 444.31,842.18 438.60,838.78 C431.96,834.65 418.40,824.95 415.77,822.68 C413.65,820.83 408.84,814.62 407.34,812.22 C404.30,807.28 399.36,793.94 398.14,787.70 C397.35,783.68 394.85,765.09 394.15,756.69 C393.68,749.06 393.27,733.71 393.15,726.25 C393.24,717.50 393.90,700.43 394.63,696.04 C395.73,689.50 399.39,677.35 402.48,670.08 C406.41,661.01 410.61,652.25 414.61,645.64 C423.54,631.12 439.94,608.67 448.36,597.39 C460.97,579.24 467.80,567.35 471.81,559.10 C473.42,555.72 475.50,550.82 477.11,546.72 C478.15,544.01 479.45,540.62 479.94,539.56" fill="none" stroke="rgb(255, 128, 64)" stroke-width="27.80" stroke-opacity="1.00" stroke-linejoin="round"/>
<path d="M482.95,534.08 C483.85,534.01 496.85,534.16 514.67,537.08 C525.57,539.04 536.57,541.56 545.49,544.16 C551.37,545.93 566.00,551.42 572.94,554.45 C580.69,557.96 592.78,564.58 598.61,568.62 C604.99,573.08 615.24,582.73 619.96,588.05 C624.31,592.99 633.10,605.98 637.32,611.96 C643.34,620.22 648.67,626.98 653.42,631.58 C654.25,632.39 684.68,655.21 687.58,658.28 C691.20,662.14 697.41,673.02 699.76,680.44 C701.40,685.69 703.52,700.38 703.69,707.19 C703.87,715.00 702.74,727.52 701.31,733.08 C699.62,739.49 694.17,752.22 690.85,757.24 C686.95,763.10 679.59,771.29 674.08,776.80 C668.92,781.91 644.64,803.08 630.01,817.30 C619.37,827.96 603.64,844.08 603.19,844.32 C602.90,844.48 602.26,844.67 601.28,844.88 C601.28,844.88 600.49,843.70 600.49,843.70" fill="none" stroke="rgb(255, 128, 64)" stroke-width="27.80" stroke-opacity="1.00" stroke-linejoin="round"/>
<path d="M615.55,819.03 C615.54,819.06 619.46,806.26 620.78,800.97 C623.13,791.24 623.89,765.99 622.93,760.75 C621.71,754.33 616.39,741.33 612.96,736.18 C610.56,732.64 607.54,728.74 605.14,726.31 C602.00,723.17 596.28,718.98 592.30,717.06 C587.73,714.90 576.18,712.46 568.46,712.00 C560.54,711.55 550.52,712.16 538.76,713.29 C531.06,714.13 517.62,715.98 511.24,717.05 C503.54,718.53 489.39,721.56 485.41,722.99 C481.69,724.36 476.97,727.05 474.72,729.24 C472.77,731.18 468.20,737.28 466.17,741.47 C463.08,747.93 458.06,762.04 456.30,769.07 C455.81,771.06 454.50,777.94 454.79,779.66 C455.20,781.88 458.35,786.44 460.00,788.77 C469.48,802.75 483.29,823.06 487.60,829.40 C489.62,832.28 492.68,835.73 495.60,838.05 C499.24,840.90 505.13,844.75 508.67,846.32 C511.93,847.73 518.11,849.69 521.55,850.16 C527.14,850.88 537.62,851.34 546.23,850.95 C548.65,850.84 551.17,850.68 553.19,850.50 C560.99,849.79 567.70,847.46 569.92,846.57" fill="none" stroke="rgb(255, 128, 64)" stroke-width="27.80" stroke-opacity="1.00" stroke-linejoin="round"/>
<path d="M717.35,811.81 C718.54,811.03 722.68,808.33 723.28,807.91 C726.47,805.74 729.32,805.29 733.77,805.33 C737.39,805.39 758.36,806.69 764.05,807.42 C770.94,808.33 788.92,812.45 794.20,814.21 C800.15,816.23 816.86,824.16 820.62,826.10 C831.66,831.83 857.73,849.01 858.55,849.58 C859.98,850.58 864.06,853.60 865.10,854.38 C867.62,856.30 871.04,858.91 871.94,859.59" fill="none" stroke="rgb(255, 128, 64)" stroke-width="27.80" stroke-opacity="1.00" stroke-linejoin="round"/>
<path d="M167.48,566.53 C169.43,566.56 170.56,566.51 172.72,566.27 C188.53,564.43 218.07,561.04 232.51,560.94 C239.15,560.99 250.63,561.39 261.02,562.26 C270.82,563.29 284.66,565.37 292.50,566.77 C306.59,569.52 341.97,579.29 345.92,580.63 C350.34,582.14 365.41,588.80 372.61,592.15 C381.11,596.33 391.64,602.56 399.79,608.32 C406.49,613.15 415.66,620.78 422.22,627.29 C423.82,628.88 436.86,642.55 442.35,648.39 C452.79,660.04 474.90,688.24 481.44,697.52 C485.73,703.93 493.17,715.58 496.81,721.32 C502.55,730.64 518.50,761.98 525.62,776.44 C532.23,790.48 545.40,818.69 552.50,832.31 C558.57,843.50 578.55,876.78 584.39,885.82 C586.54,889.05 593.29,898.15 600.08,906.37 C605.71,913.02 616.40,922.03 623.95,927.10 C628.83,930.36 646.32,940.15 649.81,941.91 C657.16,945.61 671.65,951.87 678.63,954.09 C685.95,956.40 698.49,959.18 706.73,960.09 C712.69,960.70 731.96,962.20 740.23,962.82 C742.44,962.98 748.11,963.31 752.45,962.23 C756.57,961.18 763.04,959.42 764.07,959.08 C767.90,957.77 772.03,955.07 773.44,954.10" fill="none" stroke="rgb(255, 128, 64)" stroke-width="27.80" stroke-opacity="1.00" stroke-linejoin="round"/>
<path d="M732.87,963.89 C739.59,963.04 756.17,960.87 764.30,958.29 C771.80,955.87 782.28,950.22 791.28,944.76 C798.32,940.36 808.96,931.76 813.67,927.43 C818.78,922.64 826.80,915.03 834.48,907.08 C841.66,899.44 847.85,892.25 854.41,883.85 C859.24,877.29 867.40,865.96 867.83,865.24 C869.33,862.74 870.78,858.89 871.40,858.35 C871.41,858.34 871.27,858.80 870.98,859.72" fill="none" stroke="rgb(255, 128, 64)" stroke-width="27.80" stroke-opacity="1.00" stroke-linejoin="round"/>
<path d="M161.52,572.49 C161.75,572.74 161.91,576.87 162.04,588.21 C162.27,605.71 163.18,643.86 164.07,655.85 C165.46,669.46 169.98,703.41 172.09,715.26 C173.16,720.78 177.58,739.74 179.08,745.27 C181.61,753.99 186.26,767.09 189.64,774.80 C192.82,781.67 200.10,797.11 202.98,802.02 C205.86,806.92 213.23,818.42 217.10,823.42 C218.43,825.13 230.53,839.71 235.94,845.87 C245.14,855.96 268.35,877.12 279.33,886.92 C292.98,898.76 312.54,913.12 329.04,924.37 C333.89,927.63 342.79,933.31 351.27,937.88 C364.14,944.36 391.22,957.54 405.54,963.06 C412.52,965.57 424.78,969.55 433.72,972.02 C450.10,976.14 473.84,980.37 492.54,983.05 C508.90,985.06 536.14,987.83 552.65,988.23 C568.71,988.31 606.44,988.13 617.30,986.70 C630.84,984.99 660.77,981.05 677.17,978.81 C694.25,976.34 728.94,968.93 733.63,967.62 C741.40,965.44 753.02,963.19 759.41,960.21 C760.11,959.88 760.82,959.55 761.53,959.22" fill="none" stroke="rgb(255, 128, 64)" stroke-width="27.80" stroke-opacity="1.00" stroke-linejoin="round"/>
</g>
</svg>
