<?xml version="1.0" encoding="UTF-8" standalone="no"?>
<!DOCTYPE svg PUBLIC "-//W3C//DTD SVG 1.1//EN" "http://www.w3.org/Graphics/SVG/1.1/DTD/svg11.dtd">
<svg width="259.20" height="259.20" viewBox="0.00 0.00 1080.00 1080.00" xmlns="http://www.w3.org/2000/svg" xmlns:xlink="http://www.w3.org/1999/xlink">
<g stroke-linecap="round" transform="translate(-15.00, 18.00)" id="Layer_7_Copy_2">
<path d="M514.04,315.60 C514.49,315.43 514.80,315.28 514.97,315.15 C516.50,313.99 525.64,300.01 529.98,292.37 C536.55,280.35 548.56,253.83 554.92,239.43 C557.81,232.86 564.96,216.93 567.60,211.89 C571.06,205.34 581.90,190.64 584.77,187.11 C589.35,181.50 600.58,170.77 603.87,168.28 C605.48,167.09 609.47,164.11 610.04,163.80 C610.44,163.59 611.03,163.39 611.83,163.21" fill="none" stroke="rgb(255, 128, 64)" stroke-width="27.80" stroke-opacity="1.00" stroke-linejoin="round"/>
<path d="M610.89,165.87 C610.54,168.48 610.85,173.53 613.28,185.50 C615.44,195.26 618.13,202.40 622.55,213.22 C628.89,228.64 641.36,258.53 647.48,273.00 C653.15,285.88 666.95,312.43 674.08,325.75 C679.83,336.24 696.01,361.04 705.17,375.09 C713.84,388.51 729.24,412.93 736.73,427.18 C741.47,436.57 745.45,446.89 747.48,455.42 C749.48,464.08 750.95,478.40 750.41,484.25 C749.83,490.14 745.48,505.33 743.36,510.21 C742.00,513.30 733.76,529.49 730.36,536.12 C726.97,542.92 723.35,554.86 722.96,558.00 C722.62,560.77 722.62,568.46 722.70,572.49 C722.90,577.92 723.36,583.97 724.05,588.67 C724.39,590.93 724.67,592.13 725.25,593.92" fill="none" stroke="rgb(255, 128, 64)" stroke-width="27.80" stroke-opacity="1.00" stroke-linejoin="round"/>
<path d="M729.25,599.38 C729.88,596.77 731.57,591.89 733.06,588.75 C735.82,583.00 744.03,571.16 749.32,565.41 C754.62,559.73 762.53,552.99 767.90,550.37 C772.97,548.00 777.05,546.54 778.71,545.94" fill="none" stroke="rgb(255, 128, 64)" stroke-width="27.80" stroke-opacity="1.00" stroke-linejoin="round"/>
<path d="M636.07,864.70 C635.94,864.25 636.29,863.84 637.97,862.77 C639.61,861.70 674.12,838.47 686.15,831.07 C698.23,823.66 725.19,806.70 734.54,800.24 C748.52,790.17 762.68,777.98 778.01,763.01 C784.98,755.93 792.33,747.97 799.21,739.70 C801.42,736.91 806.12,730.88 807.71,728.26 C808.90,726.28 811.62,719.23 812.03,716.42 C812.53,712.82 811.59,706.88 810.04,702.31 C808.79,698.75 799.26,681.14 796.81,674.85 C794.13,667.91 791.25,656.46 791.14,648.83 C791.06,642.10 792.79,628.04 793.64,621.40 C794.80,611.63 794.80,599.52 792.95,591.53 C790.87,582.74 781.29,561.20 780.75,558.74 C780.32,556.78 779.04,549.84 778.92,548.65 C778.76,546.92 778.73,544.37 778.81,543.05" fill="none" stroke="rgb(255, 128, 64)" stroke-width="27.80" stroke-opacity="1.00" stroke-linejoin="round"/>
<path d="M813.21,406.74 C815.05,409.68 817.23,416.04 818.57,420.11 C820.91,427.53 824.10,439.72 825.47,446.61 C825.76,448.15 826.25,450.78 826.45,451.86 C826.58,452.60 826.79,453.87 826.90,454.56 C826.90,454.56 826.54,451.17 826.54,451.17" fill="none" stroke="rgb(255, 128, 64)" stroke-width="27.80" stroke-opacity="1.00" stroke-linejoin="round"/>
<path d="M485.52,77.89 C485.84,74.75 486.94,70.11 488.39,66.42 C489.58,63.43 492.45,58.24 494.36,55.66 C498.79,49.75 505.10,43.60 507.30,42.00 C509.20,40.63 513.31,38.27 513.85,38.02 C514.13,37.88 514.61,37.68 515.29,37.42" fill="none" stroke="rgb(255, 128, 64)" stroke-width="27.80" stroke-opacity="1.00" stroke-linejoin="round"/>
<path d="M760.04,240.22 C758.26,239.95 757.14,239.24 755.65,237.22 C753.63,234.48 740.59,219.35 737.37,214.68 C733.13,208.47 727.67,196.46 725.31,190.22 C723.54,185.48 721.02,166.92 720.63,161.78 C720.12,155.08 720.28,124.87 720.36,117.12 C720.34,114.16 720.29,111.98 720.18,110.10 C720.13,109.18 719.97,106.57 719.92,106.14 C719.90,105.88 719.84,105.55 719.76,105.15" fill="none" stroke="rgb(255, 128, 64)" stroke-width="27.80" stroke-opacity="1.00" stroke-linejoin="round"/>
<path d="M719.56,102.96 C721.13,103.26 726.26,104.85 730.82,106.56 C738.45,109.60 756.35,116.93 760.31,119.37 C767.81,124.01 776.51,130.63 780.60,135.16 C782.59,137.38 786.27,142.94 787.27,145.34 C788.34,147.98 789.64,155.05 789.56,158.72 C789.43,163.70 786.84,175.76 784.22,182.48 C781.18,190.17 773.61,209.33 772.83,211.46 C771.34,215.53 767.20,233.86 767.13,234.20 C766.99,234.86 766.79,235.89 766.53,237.30 C766.38,238.12 766.23,238.94 766.08,239.76 C765.89,240.74 765.70,241.71 765.52,242.69" fill="none" stroke="rgb(255, 128, 64)" stroke-width="27.80" stroke-opacity="1.00" stroke-linejoin="round"/>
<path d="M410.24,505.67 C410.73,491.83 412.80,460.54 414.31,444.34 C416.63,424.42 420.67,400.68 423.36,387.42 C425.50,377.69 427.76,368.97 431.04,358.28 C433.45,350.82 438.54,337.47 441.54,330.31 C444.70,323.38 451.48,308.87 455.37,302.27 C458.03,297.78 468.93,281.73 472.82,276.79 C482.90,264.03 493.99,253.74 495.27,252.92 C495.96,252.48 496.86,252.11 497.32,252.01" fill="none" stroke="rgb(255, 128, 64)" stroke-width="27.80" stroke-opacity="1.00" stroke-linejoin="round"/>
<path d="M497.91,252.01 C497.88,252.24 499.94,258.28 500.56,262.36 C501.88,271.43 503.02,282.68 505.01,291.53 C507.74,302.89 509.64,309.60 510.42,311.46 C510.66,312.04 510.88,312.48 511.05,312.78 C511.15,312.94 511.38,313.26 511.72,313.72 C511.72,313.72 511.73,313.19 511.73,313.19" fill="none" stroke="rgb(255, 128, 64)" stroke-width="27.80" stroke-opacity="1.00" stroke-linejoin="round"/>
<path d="M303.18,447.70 C303.67,447.93 308.51,448.98 311.78,450.43 C314.96,451.89 327.91,461.99 332.42,466.75 C337.06,471.67 344.04,481.30 346.50,486.75 C349.27,492.92 354.59,508.35 355.94,515.14 C356.89,519.97 359.44,540.14 360.43,548.47 C360.67,550.71 360.93,551.40 361.61,551.92 C366.53,546.64 377.35,535.13 383.26,528.89 C391.30,520.75 396.21,514.17 396.82,513.66 C397.23,513.33 402.21,510.53 403.49,509.62 C404.89,508.62 408.77,504.27 409.49,503.45" fill="none" stroke="rgb(255, 128, 64)" stroke-width="27.80" stroke-opacity="1.00" stroke-linejoin="round"/>
<path d="M304.73,448.19 C304.42,448.27 304.23,449.34 304.41,450.83 C304.45,451.18 305.94,459.11 306.24,461.96 C306.63,465.72 307.10,484.35 307.22,492.35 C307.17,502.42 306.29,509.99 304.68,519.94 C302.83,530.68 293.76,562.88 289.36,578.14 C287.17,585.29 283.89,595.92 281.51,604.89 C279.60,612.79 275.26,631.52 274.71,635.07 C274.18,638.57 274.43,655.56 274.99,660.22 C275.82,666.76 285.69,706.91 289.74,723.19 C292.74,736.60 300.48,768.73 303.30,776.27 C306.17,783.64 312.80,800.26 314.47,803.45 C315.66,805.69 318.87,810.38 321.36,813.50 C325.89,819.11 338.09,828.85 344.16,832.88 C355.89,840.42 380.64,857.05 393.54,865.75 C400.89,870.39 414.96,879.12 421.69,883.21 C430.63,888.57 439.05,892.60 447.08,895.27 C452.70,897.13 466.14,899.44 474.48,900.53 C480.30,901.22 495.39,901.97 502.44,901.82 C516.84,901.35 544.16,898.51 558.94,896.51 C564.15,895.72 582.13,892.29 586.15,891.28 C593.25,889.48 606.78,884.56 614.53,881.19 C619.51,878.96 625.25,875.98 628.76,873.48 C630.90,872.04 633.48,870.30 634.32,869.58" fill="none" stroke="rgb(255, 128, 64)" stroke-width="27.80" stroke-opacity="1.00" stroke-linejoin="round"/>
<path d="M611.86,827.52 C610.76,827.54 605.75,831.64 602.60,833.33 C595.75,837.01 555.16,856.66 547.46,859.75 C537.77,863.61 526.59,866.24 518.34,867.30 C513.33,867.93 500.82,867.11 493.04,864.95 C486.47,863.11 474.68,858.52 465.34,853.70 C458.00,849.75 444.31,842.18 438.60,838.78 C431.96,834.65 418.40,824.95 415.77,822.68 C413.65,820.83 408.84,814.62 407.34,812.22 C404.30,807.28 399.36,793.94 398.14,787.70 C397.35,783.68 394.85,765.09 394.15,756.69 C393.68,749.06 393.27,733.71 393.15,726.25 C393.24,717.50 393.90,700.43 394.63,696.04 C395.73,689.50 399.39,677.35 402.48,670.08 C406.41,661.01 410.61,652.25 414.61,645.64 C423.54,631.12 439.94,608.67 448.36,597.39 C460.97,579.24 467.80,567.35 471.81,559.10 C473.42,555.72 475.50,550.82 477.11,546.72 C478.15,544.01 479.45,540.62 479.94,539.56" fill="none" stroke="rgb(255, 128, 64)" stroke-width="27.80" stroke-opacity="1.00" stroke-linejoin="round"/>
<path d="M482.95,534.08 C483.85,534.01 496.85,534.16 514.67,537.08 C525.57,539.04 536.57,541.56 545.49,544.16 C551.37,545.93 566.00,551.42 572.94,554.45 C580.69,557.96 592.78,564.58 598.61,568.62 C604.99,573.08 615.24,582.73 619.96,588.05 C624.31,592.99 633.10,605.98 637.32,611.96 C643.34,620.22 648.67,626.98 653.42,631.58 C654.25,632.39 684.68,655.21 687.58,658.28 C691.20,662.14 697.41,673.02 699.76,680.44 C701.40,685.69 703.52,700.38 703.69,707.19 C703.87,715.00 702.74,727.52 701.31,733.08 C699.62,739.49 694.17,752.22 690.85,757.24 C686.95,763.10 679.59,771.29 674.08,776.80 C668.92,781.91 644.64,803.08 630.01,817.30 C619.37,827.96 603.64,844.08 603.19,844.32 C602.90,844.48 602.26,844.67 601.28,844.88 C601.28,844.88 600.49,843.70 600.49,843.70" fill="none" stroke="rgb(255, 128, 64)" stroke-width="27.80" stroke-opacity="1.00" stroke-linejoin="round"/>
<path d="M615.55,819.03 C615.54,819.06 619.46,806.26 620.78,800.97 C623.13,791.24 623.89,765.99 622.93,760.75 C621.71,754.33 616.39,741.33 612.96,736.18 C610.56,732.64 607.54,728.74 605.14,726.31 C602.00,723.17 596.28,718.98 592.30,717.06 C587.73,714.90 576.18,712.46 568.46,712.00 C560.54,711.55 550.52,712.16 538.76,713.29 C531.06,714.13 517.62,715.98 511.24,717.05 C503.54,718.53 489.39,721.56 485.41,722.99 C481.69,724.36 476.97,727.05 474.72,729.24 C472.77,731.18 468.20,737.28 466.17,741.47 C463.08,747.93 458.06,762.04 456.30,769.07 C455.81,771.06 454.50,777.94 454.79,779.66 C455.20,781.88 458.35,786.44 460.00,788.77 C469.48,802.75 483.29,823.06 487.60,829.40 C489.62,832.28 492.68,835.73 495.60,838.05 C499.24,840.90 505.13,844.75 508.67,846.32 C511.93,847.73 518.11,849.69 521.55,850.16 C527.14,850.88 537.62,851.34 546.23,850.95 C548.65,850.84 551.17,850.68 553.19,850.50 C560.99,849.79 567.70,847.46 569.92,846.57" fill="none" stroke="rgb(255, 128, 64)" stroke-width="27.80" stroke-opacity="1.00" stroke-linejoin="round"/>
<path d="M717.35,811.81 C718.54,811.03 722.68,808.33 723.28,807.91 C726.47,805.74 729.32,805.29 733.77,805.33 C737.39,805.39 758.36,806.69 764.05,807.42 C770.94,808.33 788.92,812.45 794.20,814.21 C800.15,816.23 816.86,824.16 820.62,826.10 C831.66,831.83 857.73,849.01 858.55,849.58 C859.98,850.58 864.06,853.60 865.10,854.38 C867.62,856.30 871.04,858.91 871.94,859.59" fill="none" stroke="rgb(255, 128, 64)" stroke-width="27.80" stroke-opacity="1.00" stroke-linejoin="round"/>
<path d="M167.48,566.53 C169.43,566.56 170.56,566.51 172.72,566.27 C188.53,564.43 218.07,561.04 232.51,560.94 C239.15,560.99 250.63,561.39 261.02,562.26 C270.82,563.29 284.66,565.37 292.50,566.77 C306.59,569.52 341.97,579.29 345.92,580.63 C350.34,582.14 365.41,588.80 372.61,592.15 C381.11,596.33 391.64,602.56 399.79,608.32 C406.49,613.15 415.66,620.78 422.22,627.29 C423.82,628.88 436.86,642.55 442.35,648.39 C452.79,660.04 474.90,688.24 481.44,697.52 C485.73,703.93 493.17,715.58 496.81,721.32 C502.55,730.64 518.50,761.98 525.62,776.44 C532.23,790.48 545.40,818.69 552.50,832.31 C558.57,843.50 578.55,876.78 584.39,885.82 C586.54,889.05 593.29,898.15 600.08,906.37 C605.71,913.02 616.40,922.03 623.95,927.10 C628.83,930.36 646.32,940.15 649.81,941.91 C657.16,945.61 671.65,951.87 678.63,954.09 C685.95,956.40 698.49,959.18 706.73,960.09 C712.69,960.70 731.96,962.20 740.23,962.82 C742.44,962.98 748.11,963.31 752.45,962.23 C756.57,961.18 763.04,959.42 764.07,959.08 C767.90,957.77 772.03,955.07 773.44,954.10" fill="none" stroke="rgb(255, 128, 64)" stroke-width="27.80" stroke-opacity="1.00" stroke-linejoin="round"/>
<path d="M732.87,963.89 C739.59,963.04 756.17,960.87 764.30,958.29 C771.80,955.87 782.28,950.22 791.28,944.76 C798.32,940.36 808.96,931.76 813.67,927.43 C818.78,922.64 826.80,915.03 834.48,907.08 C841.66,899.44 847.85,892.25 854.41,883.85 C859.24,877.29 867.40,865.96 867.83,865.24 C869.33,862.74 870.78,858.89 871.40,858.35 C871.41,858.34 871.27,858.80 870.98,859.72" fill="none" stroke="rgb(255, 128, 64)" stroke-width="27.80" stroke-opacity="1.00" stroke-linejoin="round"/>
<path d="M161.52,572.49 C161.75,572.74 161.91,576.87 162.04,588.21 C162.27,605.71 163.18,643.86 164.07,655.85 C165.46,669.46 169.98,703.41 172.09,715.26 C173.16,720.78 177.58,739.74 179.08,745.27 C181.61,753.99 186.26,767.09 189.64,774.80 C192.82,781.67 200.10,797.11 202.98,802.02 C205.86,806.92 213.23,818.42 217.10,823.42 C218.43,825.13 230.53,839.71 235.94,845.87 C245.14,855.96 268.35,877.12 279.33,886.92 C292.98,898.76 312.54,913.12 329.04,924.37 C333.89,927.63 342.79,933.31 351.27,937.88 C364.14,944.36 391.22,957.54 405.54,963.06 C412.52,965.57 424.78,969.55 433.72,972.02 C450.10,976.14 473.84,980.37 492.54,983.05 C508.90,985.06 536.14,987.83 552.65,988.23 C568.71,988.31 606.44,988.13 617.30,986.70 C630.84,984.99 660.77,981.05 677.17,978.81 C694.25,976.34 728.94,968.93 733.63,967.62 C741.40,965.44 753.02,963.19 759.41,960.21 C760.11,959.88 760.82,959.55 761.53,959.22" fill="none" stroke="rgb(255, 128, 64)" stroke-width="27.80" stroke-opacity="1.00" stroke-linejoin="round"/>
</g>
<g stroke-linecap="round" transform="translate(-422.00, 5.00)" id="Layer_14_Copy">
<path d="M1139.77,1031.81 C1136.32,1033.05 1117.12,1039.10 1109.49,1041.40 C1094.01,1045.61 1062.73,1052.78 1047.12,1055.70 C1039.33,1057.01 1023.60,1058.89 1015.71,1059.76 C999.77,1061.08 967.65,1062.45 951.72,1062.48 C935.89,1062.19 904.26,1059.34 888.34,1057.31 C880.38,1056.08 864.56,1053.41 856.70,1051.97 C848.93,1050.33 833.46,1046.92 825.83,1044.85 C810.58,1040.42 780.16,1030.23 765.16,1024.52 C743.77,1015.71 728.16,1008.33 707.78,997.39 C693.85,989.42 666.66,972.37 653.56,963.40 C647.12,958.82 634.67,949.02 628.47,944.06 C616.27,933.73 592.59,911.98 581.30,900.74 C570.32,889.34 549.96,864.96 540.14,852.26 C535.39,845.76 526.09,832.69 521.55,826.11 C517.21,819.46 508.68,806.11 504.75,799.25 C497.10,785.34 482.80,756.61 476.23,741.97 C467.33,720.62 461.51,704.36 454.84,682.21 C450.62,666.73 443.45,635.45 440.54,619.84 C439.22,612.05 437.34,596.32 436.47,588.43 C435.15,572.49 433.78,540.37 433.75,524.44 C434.04,508.61 436.89,476.98 438.92,461.06 C440.16,453.10 442.83,437.28 444.26,429.42 C445.90,421.65 449.31,406.18 451.38,398.55 C455.81,383.30 466.01,352.88 471.71,337.88 C480.52,316.49 487.90,300.88 498.85,280.50 C506.82,266.57 523.86,239.38 532.84,226.28 C537.41,219.84 547.21,207.39 552.17,201.19 C562.51,188.99 584.25,165.31 595.49,154.02 C606.90,143.04 631.28,122.68 643.97,112.86 C650.47,108.11 663.54,98.81 670.12,94.27 C676.77,89.93 690.12,81.40 696.98,77.47 C710.89,69.82 739.62,55.52 754.26,48.95 C775.62,40.05 791.87,34.23 814.02,27.56 C829.51,23.35 860.78,16.17 876.39,13.26 C884.18,11.94 899.91,10.06 907.81,9.19 C923.74,7.87 955.86,6.50 971.79,6.47 C987.62,6.76 1019.26,9.61 1035.17,11.64 C1043.13,12.88 1058.95,15.55 1066.81,16.98 C1074.58,18.62 1090.06,22.03 1097.68,24.10 C1112.93,28.53 1143.36,38.73 1158.35,44.44 C1179.75,53.25 1195.35,60.62 1215.74,71.57 C1229.67,79.54 1256.85,96.58 1269.95,105.56 C1276.39,110.14 1288.84,119.93 1295.04,124.90 C1307.24,135.23 1330.92,156.97 1342.21,168.22 C1353.19,179.62 1373.55,204.00 1383.37,216.69 C1388.12,223.19 1397.42,236.27 1401.97,242.84 C1406.30,249.50 1414.83,262.84 1418.76,269.70 C1426.41,283.62 1440.71,312.34 1447.28,326.98 C1456.18,348.34 1462.00,364.59 1468.67,386.74 C1472.89,402.23 1480.06,433.50 1482.98,449.11 C1484.29,456.90 1486.17,472.64 1487.04,480.53 C1488.36,496.46 1489.73,528.58 1489.76,544.51 C1489.47,560.34 1486.62,591.98 1484.59,607.90 C1483.36,615.85 1480.69,631.67 1479.25,639.54 C1477.61,647.30 1474.20,662.78 1472.13,670.40 C1467.70,685.65 1457.50,716.08 1451.80,731.08 C1442.99,752.47 1435.61,768.07 1424.67,788.46 C1416.70,802.39 1399.65,829.57 1390.68,842.67 C1386.10,849.11 1376.30,861.56 1371.34,867.76 C1361.01,879.96 1339.26,903.64 1328.02,914.93 C1316.62,925.91 1292.23,946.27 1279.54,956.09 C1273.04,960.84 1259.97,970.14 1253.39,974.69 C1246.74,979.02 1233.39,987.55 1226.53,991.48 C1212.62,999.13 1183.89,1013.43 1169.25,1020.01 C1161.90,1023.07 1143.22,1030.58 1139.77,1031.81 Z" fill="none" stroke="rgb(255, 128, 64)" stroke-width="23.67" stroke-opacity="1.00" stroke-linejoin="round"/>
</g>
<g stroke-linecap="round" id="Layer_5">
<path d="M231.63,265.49 C231.94,267.64 232.06,268.77 232.16,270.44 C232.45,275.56 232.20,316.39 232.17,316.59 C232.12,316.86 231.96,317.17 231.69,317.52" fill="none" stroke="rgb(255, 128, 64)" stroke-width="25.00" stroke-opacity="1.00" stroke-linejoin="round"/>
<path d="M154.39,356.96 C154.29,357.55 154.22,357.99 154.20,358.29 C154.18,358.78 154.36,412.87 154.59,416.68 C154.66,417.72 154.72,418.56 154.79,419.18 C154.82,419.42 154.85,419.51 154.88,419.45" fill="none" stroke="rgb(255, 128, 64)" stroke-width="25.00" stroke-opacity="1.00" stroke-linejoin="round"/>
<path d="M155.25,358.59 C156.18,358.88 156.74,358.94 158.71,358.84 C162.59,358.66 185.34,358.58 188.69,359.60 C190.84,360.29 193.23,361.50 194.49,362.61 C195.60,363.63 197.37,366.15 197.89,367.48 C198.43,368.96 198.80,372.19 198.56,373.79 C197.99,377.17 195.44,381.57 194.17,382.93 C192.77,384.39 189.50,386.67 187.42,387.61 C183.97,389.14 173.97,390.74 164.62,390.62 C161.52,390.56 157.70,390.50 156.97,390.49 C156.43,390.49 155.89,390.49 155.35,390.49 C154.59,390.49 153.83,390.49 153.08,390.49" fill="none" stroke="rgb(255, 128, 64)" stroke-width="25.00" stroke-opacity="1.00" stroke-linejoin="round"/>
<path d="M270.98,263.94 C270.97,265.63 270.97,266.59 271.02,268.43 C271.50,283.62 273.69,318.77 273.75,319.32 C273.75,319.32 273.22,318.31 273.22,318.31" fill="none" stroke="rgb(255, 128, 64)" stroke-width="25.00" stroke-opacity="1.00" stroke-linejoin="round"/>
<path d="M271.74,264.93 C273.27,264.57 274.47,264.35 276.23,264.14 C281.44,263.50 295.95,263.19 302.81,264.60 C304.65,265.00 306.85,265.85 308.23,266.77 C309.51,267.66 311.49,270.00 312.05,271.31 C312.68,272.93 312.96,276.30 312.53,278.04 C311.71,281.11 308.09,285.25 306.52,286.44 C304.69,287.79 299.83,289.93 298.00,290.36 C293.48,291.40 275.14,292.62 274.48,292.66 C274.09,292.68 273.42,292.73 272.46,292.81" fill="none" stroke="rgb(255, 128, 64)" stroke-width="25.00" stroke-opacity="1.00" stroke-linejoin="round"/>
<path d="M295.47,291.51 C295.43,292.30 297.63,295.43 300.20,299.20 C304.40,305.54 312.55,317.86 312.53,317.95 C312.52,318.01 312.31,317.96 311.91,317.81" fill="none" stroke="rgb(255, 128, 64)" stroke-width="25.00" stroke-opacity="1.00" stroke-linejoin="round"/>
<path d="M233.45,359.14 C233.20,359.17 233.09,360.06 233.10,362.39 C233.17,369.07 234.04,384.03 234.51,391.56 C234.97,400.51 234.79,409.81 234.64,415.66 C234.63,415.86 234.62,416.07 234.61,416.27" fill="none" stroke="rgb(255, 128, 64)" stroke-width="25.00" stroke-opacity="1.00" stroke-linejoin="round"/>
<path d="M268.75,360.14 C268.75,360.14 268.45,360.53 268.45,360.53 C269.34,360.42 273.93,360.01 277.98,359.84 C291.97,359.48 319.52,359.35 319.92,359.37 C320.14,359.38 320.39,359.42 320.67,359.49" fill="none" stroke="rgb(255, 128, 64)" stroke-width="25.00" stroke-opacity="1.00" stroke-linejoin="round"/>
<path d="M293.27,363.31 C293.60,365.15 294.12,369.94 294.21,372.22 C294.30,375.12 294.42,410.81 294.63,417.03 C294.63,417.49 294.58,418.04 294.46,418.69 C294.43,418.86 294.38,419.07 294.30,419.33" fill="none" stroke="rgb(255, 128, 64)" stroke-width="25.00" stroke-opacity="1.00" stroke-linejoin="round"/>
<path d="M349.03,263.44 C349.03,263.27 349.03,263.79 349.03,263.96 C349.03,265.86 349.02,269.08 349.02,270.40 C348.95,286.56 348.86,313.94 348.98,314.90 C349.01,315.12 349.09,315.49 349.22,316.02" fill="none" stroke="rgb(255, 128, 64)" stroke-width="25.00" stroke-opacity="1.00" stroke-linejoin="round"/>
<path d="M351.05,316.60 C351.05,316.60 351.05,317.11 351.05,317.11 C354.22,317.07 358.68,317.16 362.35,317.24 C370.39,317.52 387.78,318.10 388.79,317.90 C388.74,317.39 388.67,317.05 388.58,316.89 C388.49,316.73 388.27,316.53 387.90,316.29" fill="none" stroke="rgb(255, 128, 64)" stroke-width="25.00" stroke-opacity="1.00" stroke-linejoin="round"/>
<path d="M351.36,290.67 C352.61,290.67 353.86,290.67 355.12,290.67 C361.58,290.68 375.94,290.58 381.95,290.38 C381.95,290.38 380.10,290.36 380.10,290.36" fill="none" stroke="rgb(255, 128, 64)" stroke-width="25.00" stroke-opacity="1.00" stroke-linejoin="round"/>
<path d="M350.66,262.30 C352.59,262.35 355.96,262.41 357.42,262.42 C365.98,262.48 382.11,262.68 389.68,262.82 C389.68,262.82 388.53,263.60 388.53,263.60" fill="none" stroke="rgb(255, 128, 64)" stroke-width="25.00" stroke-opacity="1.00" stroke-linejoin="round"/>
<path d="M155.03,264.43 C155.65,267.26 156.05,272.42 156.07,276.08 C156.12,292.00 156.20,317.42 156.20,317.73 C156.24,318.91 156.27,320.09 156.31,321.27" fill="none" stroke="rgb(255, 128, 64)" stroke-width="25.00" stroke-opacity="1.00" stroke-linejoin="round"/>
<path d="M156.35,264.97 C156.30,264.93 170.28,264.25 183.39,264.20 C187.36,264.20 193.63,264.20 195.93,264.20 C196.16,264.20 196.40,264.20 196.63,264.20" fill="none" stroke="rgb(255, 128, 64)" stroke-width="25.00" stroke-opacity="1.00" stroke-linejoin="round"/>
<path d="M158.95,290.94 C161.85,290.65 169.10,290.45 173.71,290.34 C181.19,290.28 193.77,290.22 193.84,290.23 C193.95,290.26 193.79,290.36 193.37,290.53" fill="none" stroke="rgb(255, 128, 64)" stroke-width="25.00" stroke-opacity="1.00" stroke-linejoin="round"/>
</g>
</svg>
